<?xml version="1.0" encoding="UTF-8" standalone="no"?>
<!-- Created with Bouml (http://bouml.free.fr/) -->
<!DOCTYPE svg PUBLIC "-//W3C//DTD SVG 1.1//EN" "http://www.w3.org/Graphics/SVG/1.1/DTD/svg11.dtd">
<svg width="1328" height="425" version="1.1" xmlns="http://www.w3.org/2000/svg">
<g>
	<rect fill="#cbcbcb" stroke="none" stroke-opacity="1" x="828" y="69" width="5" height="85" />
	<rect fill="#cbcbcb" stroke="none" stroke-opacity="1" x="580" y="149" width="253" height="5" />
	<rect fill="#ffffc0" stroke="black" stroke-width="1" stroke-opacity="1" x="574" y="63" width="254" height="86" />
	<text font-family="Helvetica" font-size="13" fill="#000000" xml:space="preserve" text-anchor="middle" x="701" y="79">&lt;&lt;interface&gt;&gt;</text>
	<text font-family="Helvetica" font-size="13" fill="#000000" xml:space="preserve" font-weight="bold" text-anchor="middle" x="701" y="104">ImportableFromPersi</text>
	<line stroke="black" stroke-opacity="1" x1="574" y1="113" x2="828" y2="113" />
	<line stroke="black" stroke-opacity="1" x1="574" y1="125" x2="828" y2="125" />
	<text font-family="Helvetica" font-size="13" fill="#000000" xml:space="preserve" font-weight="bold" x="580" y="141">+</text>
	<text font-family="Helvetica" font-size="13" fill="#000000" xml:space="preserve" x="598" y="141">importFromPersi(id : int) : void</text>
</g>
<g>
	<rect fill="#cbcbcb" stroke="none" stroke-opacity="1" x="985" y="295" width="5" height="117" />
	<rect fill="#cbcbcb" stroke="none" stroke-opacity="1" x="731" y="407" width="259" height="5" />
	<rect fill="#ffffc0" stroke="black" stroke-width="1" stroke-opacity="1" x="725" y="289" width="260" height="118" />
	<text font-family="Helvetica" font-size="13" fill="#000000" xml:space="preserve" font-weight="bold" text-anchor="middle" x="855" y="305">Ticket</text>
	<line stroke="black" stroke-opacity="1" x1="725" y1="314" x2="985" y2="314" />
	<text font-family="Helvetica" font-size="13" fill="#000000" xml:space="preserve" font-weight="bold" x="731" y="330">-</text>
	<text font-family="Helvetica" font-size="13" fill="#000000" xml:space="preserve" x="749" y="330">date : string</text>
	<text font-family="Helvetica" font-size="13" fill="#000000" xml:space="preserve" font-weight="bold" x="731" y="352">-</text>
	<text font-family="Helvetica" font-size="13" fill="#000000" xml:space="preserve" x="749" y="352">utilisateur : Utilisateur</text>
	<text font-family="Helvetica" font-size="13" fill="#000000" xml:space="preserve" font-weight="bold" x="731" y="374">-</text>
	<text font-family="Helvetica" font-size="13" fill="#000000" xml:space="preserve" x="749" y="374">produits : map&lt;Produit,double&gt;</text>
	<line stroke="black" stroke-opacity="1" x1="725" y1="383" x2="985" y2="383" />
	<text font-family="Helvetica" font-size="13" fill="#000000" xml:space="preserve" font-weight="bold" x="731" y="399">+</text>
	<text font-family="Helvetica" font-size="13" fill="#000000" xml:space="preserve" x="749" y="399">importFromPersi(id : int) : void</text>
</g>
<g>
	<rect fill="#cbcbcb" stroke="none" stroke-opacity="1" x="314" y="294" width="5" height="95" />
	<rect fill="#cbcbcb" stroke="none" stroke-opacity="1" x="66" y="384" width="253" height="5" />
	<rect fill="#ffffc0" stroke="black" stroke-width="1" stroke-opacity="1" x="60" y="288" width="254" height="96" />
	<text font-family="Helvetica" font-size="13" fill="#000000" xml:space="preserve" font-weight="bold" text-anchor="middle" x="187" y="304">Utilisateur</text>
	<line stroke="black" stroke-opacity="1" x1="60" y1="313" x2="314" y2="313" />
	<text font-family="Helvetica" font-size="13" fill="#000000" xml:space="preserve" font-weight="bold" x="66" y="329">-</text>
	<text font-family="Helvetica" font-size="13" fill="#000000" xml:space="preserve" x="84" y="329">nom : string</text>
	<text font-family="Helvetica" font-size="13" fill="#000000" xml:space="preserve" font-weight="bold" x="66" y="351">-</text>
	<text font-family="Helvetica" font-size="13" fill="#000000" xml:space="preserve" x="84" y="351">prenom : string</text>
	<line stroke="black" stroke-opacity="1" x1="60" y1="360" x2="314" y2="360" />
	<text font-family="Helvetica" font-size="13" fill="#000000" xml:space="preserve" font-weight="bold" x="66" y="376">+</text>
	<text font-family="Helvetica" font-size="13" fill="#000000" xml:space="preserve" x="84" y="376">importFromPersi(id : int) : void</text>
</g>
<g>
	<rect fill="#cbcbcb" stroke="none" stroke-opacity="1" x="644" y="293" width="5" height="73" />
	<rect fill="#cbcbcb" stroke="none" stroke-opacity="1" x="396" y="361" width="253" height="5" />
	<rect fill="#ffffc0" stroke="black" stroke-width="1" stroke-opacity="1" x="390" y="287" width="254" height="74" />
	<text font-family="Helvetica" font-size="13" fill="#000000" xml:space="preserve" font-weight="bold" text-anchor="middle" x="517" y="303">Categorie</text>
	<line stroke="black" stroke-opacity="1" x1="390" y1="312" x2="644" y2="312" />
	<text font-family="Helvetica" font-size="13" fill="#000000" xml:space="preserve" font-weight="bold" x="396" y="328">-</text>
	<text font-family="Helvetica" font-size="13" fill="#000000" xml:space="preserve" x="414" y="328">nom : string</text>
	<line stroke="black" stroke-opacity="1" x1="390" y1="337" x2="644" y2="337" />
	<text font-family="Helvetica" font-size="13" fill="#000000" xml:space="preserve" font-weight="bold" x="396" y="353">+</text>
	<text font-family="Helvetica" font-size="13" fill="#000000" xml:space="preserve" x="414" y="353">importFromPersi(id : int) : void</text>
</g>
<g>
	<rect fill="#cbcbcb" stroke="none" stroke-opacity="1" x="1310" y="295" width="5" height="117" />
	<rect fill="#cbcbcb" stroke="none" stroke-opacity="1" x="1062" y="407" width="253" height="5" />
	<rect fill="#ffffc0" stroke="black" stroke-width="1" stroke-opacity="1" x="1056" y="289" width="254" height="118" />
	<text font-family="Helvetica" font-size="13" fill="#000000" xml:space="preserve" font-weight="bold" text-anchor="middle" x="1183" y="305">Produit</text>
	<line stroke="black" stroke-opacity="1" x1="1056" y1="314" x2="1310" y2="314" />
	<text font-family="Helvetica" font-size="13" fill="#000000" xml:space="preserve" font-weight="bold" x="1062" y="330">-</text>
	<text font-family="Helvetica" font-size="13" fill="#000000" xml:space="preserve" x="1080" y="330">nom : string</text>
	<text font-family="Helvetica" font-size="13" fill="#000000" xml:space="preserve" font-weight="bold" x="1062" y="352">-</text>
	<text font-family="Helvetica" font-size="13" fill="#000000" xml:space="preserve" x="1080" y="352">prix : double</text>
	<text font-family="Helvetica" font-size="13" fill="#000000" xml:space="preserve" font-weight="bold" x="1062" y="374">-</text>
	<text font-family="Helvetica" font-size="13" fill="#000000" xml:space="preserve" x="1080" y="374">categorie : Categorie</text>
	<line stroke="black" stroke-opacity="1" x1="1056" y1="383" x2="1310" y2="383" />
	<text font-family="Helvetica" font-size="13" fill="#000000" xml:space="preserve" font-weight="bold" x="1062" y="399">+</text>
	<text font-family="Helvetica" font-size="13" fill="#000000" xml:space="preserve" x="1080" y="399">importFromPersi(id : int) : void</text>
</g>
<g>
	<line stroke-dasharray="4,4" stroke="#000000" stroke-opacity="1" x1="1183" y1="288" x2="1183" y2="227" />
</g>
<g>
	<line stroke-dasharray="4,4" stroke="#000000" stroke-opacity="1" x1="189" y1="287" x2="189" y2="225" />
</g>
<g>
	<line stroke-dasharray="4,4" stroke="#000000" stroke-opacity="1" x1="520" y1="286" x2="521" y2="225" />
</g>
<g>
	<line stroke-dasharray="4,4" stroke="#000000" stroke-opacity="1" x1="856" y1="288" x2="855" y2="226" />
</g>
<g>
	<line stroke-dasharray="4,4" stroke="#000000" stroke-opacity="1" x1="521" y1="225" x2="704" y2="225" />
</g>
<g>
	<line stroke-dasharray="4,4" stroke="#000000" stroke-opacity="1" x1="1183" y1="227" x2="704" y2="227" />
</g>
<g>
	<line stroke-dasharray="4,4" stroke="#000000" stroke-opacity="1" x1="189" y1="225" x2="704" y2="225" />
</g>
<g>
	<line stroke-dasharray="4,4" stroke="#000000" stroke-opacity="1" x1="705" y1="225" x2="702" y2="160" />
	<line stroke="#000000" stroke-opacity="1" x1="702" y1="155" x2="696" y2="161" />
	<line stroke="#000000" stroke-opacity="1" x1="702" y1="155" x2="708" y2="160" />
	<line stroke="#000000" stroke-opacity="1" x1="696" y1="161" x2="708" y2="160" />
</g>
<g>
	<line stroke-dasharray="4,4" stroke="#000000" stroke-opacity="1" x1="855" y1="226" x2="705" y2="225" />
</g>
<g>
	<line stroke-dasharray="4,4" stroke="#000000" stroke-opacity="1" x1="704" y1="225" x2="704" y2="161" />
	<line stroke="#000000" stroke-opacity="1" x1="704" y1="155" x2="698" y2="161" />
	<line stroke="#000000" stroke-opacity="1" x1="704" y1="155" x2="710" y2="161" />
	<line stroke="#000000" stroke-opacity="1" x1="698" y1="161" x2="710" y2="161" />
</g>
<g>
	<line stroke-dasharray="4,4" stroke="#000000" stroke-opacity="1" x1="704" y1="225" x2="704" y2="161" />
	<line stroke="#000000" stroke-opacity="1" x1="704" y1="155" x2="698" y2="161" />
	<line stroke="#000000" stroke-opacity="1" x1="704" y1="155" x2="710" y2="161" />
	<line stroke="#000000" stroke-opacity="1" x1="698" y1="161" x2="710" y2="161" />
</g>
<g>
	<line stroke-dasharray="4,4" stroke="#000000" stroke-opacity="1" x1="704" y1="227" x2="704" y2="161" />
	<line stroke="#000000" stroke-opacity="1" x1="704" y1="155" x2="698" y2="161" />
	<line stroke="#000000" stroke-opacity="1" x1="704" y1="155" x2="710" y2="161" />
	<line stroke="#000000" stroke-opacity="1" x1="698" y1="161" x2="710" y2="161" />
</g>
</svg>
